<svg width="22" height="22" viewBox="0 0 22 22" fill="none" xmlns="http://www.w3.org/2000/svg">
<path d="M3.0002 0.000281297C2.74434 0.000281297 2.48819 0.0977475 2.29319 0.293243L0.293243 2.29319C-0.0977476 2.68418 -0.0977476 3.31723 0.293243 3.70722L6.17181 9.58578C6.95286 10.3668 6.95286 11.6332 6.17181 12.4142L0.293243 18.2928C-0.0977476 18.6838 -0.0977476 19.3168 0.293243 19.7068L2.29319 21.7068C2.68418 22.0977 3.31723 22.0977 3.70722 21.7068L9.58578 15.8282C10.3668 15.0471 11.6332 15.0471 12.4142 15.8282L18.2928 21.7068C18.6828 22.0977 19.3168 22.0977 19.7068 21.7068L21.7068 19.7068C22.0977 19.3158 22.0977 18.6828 21.7068 18.2928L15.8282 12.4142C15.0471 11.6332 15.0471 10.3668 15.8282 9.58579L21.7068 3.70722C22.0977 3.31723 22.0977 2.68318 21.7068 2.29319L19.7068 0.293243C19.3158 -0.0977476 18.6828 -0.0977476 18.2928 0.293243L12.4142 6.17181C11.6332 6.95286 10.3668 6.95286 9.58579 6.17181L3.70722 0.293243C3.51172 0.0977475 3.25607 0.000281297 3.0002 0.000281297Z" fill="white"/>
</svg>
