<svg width="40" height="36" viewBox="0 0 40 36" fill="none" xmlns="http://www.w3.org/2000/svg">
<path d="M36 0H4C1.794 0 0 1.794 0 4V32C0 34.206 1.794 36 4 36H36C38.206 36 40 34.206 40 32V4C40 1.794 38.206 0 36 0ZM4 32V8H36L36.004 32H4Z" fill="white"/>
<path d="M15.2931 13.2932C14.9026 12.9026 14.2694 12.9026 13.8789 13.2932L7.8791 19.293C7.48858 19.6835 7.48858 20.3166 7.8791 20.7072L13.8789 26.707C14.2694 27.0975 14.9026 27.0975 15.2931 26.707L16.7069 25.2932C17.0974 24.9026 17.0974 24.2695 16.7069 23.879L13.5351 20.7072C13.1446 20.3166 13.1446 19.6835 13.5351 19.293L16.7069 16.1212C17.0974 15.7306 17.0974 15.0975 16.7069 14.707L15.2931 13.2932ZM26.1211 13.2932C25.7306 12.9026 25.0974 12.9026 24.7069 13.2932L23.2931 14.707C22.9026 15.0975 22.9026 15.7306 23.2931 16.1212L26.4649 19.293C26.8554 19.6835 26.8554 20.3166 26.4649 20.7072L23.2931 23.879C22.9026 24.2695 22.9026 24.9026 23.2931 25.2932L24.7069 26.707C25.0974 27.0975 25.7306 27.0975 26.1211 26.707L32.1209 20.7072C32.5114 20.3166 32.5114 19.6835 32.1209 19.293L26.1211 13.2932Z" fill="white"/>
</svg>
