<svg width="50" height="48" viewBox="0 0 50 48" fill="none" xmlns="http://www.w3.org/2000/svg">
<path fill-rule="evenodd" clip-rule="evenodd" d="M24.6075 0C11.0159 0 0 11.0159 0 24.6075C0 35.4778 7.04869 44.7026 16.8285 47.9592C18.0597 48.1813 18.5037 47.4239 18.5037 46.7725C18.5037 46.1878 18.484 44.6384 18.4766 42.5882C11.6302 44.0734 10.1845 39.2871 10.1845 39.2871C9.0693 36.445 7.45331 35.6875 7.45331 35.6875C5.22052 34.1604 7.62354 34.1949 7.62354 34.1949C10.0956 34.3676 11.3909 36.7312 11.3909 36.7312C13.5867 40.4911 17.1542 39.4056 18.5506 38.7764C18.7751 37.1851 19.4166 36.0996 20.1173 35.4852C14.655 34.866 8.9114 32.7541 8.9114 23.3221C8.9114 20.6403 9.87113 18.4396 11.4378 16.7224C11.1886 16.0983 10.3374 13.5941 11.682 10.2091C11.682 10.2091 13.747 9.54546 18.447 12.7281C20.4543 12.182 22.5248 11.9033 24.605 11.8991C26.6853 11.9025 28.756 12.1813 30.7631 12.7281C35.4655 9.54299 37.5281 10.2091 37.5281 10.2091C38.8727 13.5941 38.0289 16.0983 37.7723 16.7224C39.3513 18.4396 40.2987 20.6378 40.2987 23.3221C40.2987 32.7788 34.5502 34.8561 29.0681 35.4655C29.944 36.2254 30.7335 37.7254 30.7335 40.0199C30.7335 43.3111 30.7039 45.9658 30.7039 46.7725C30.7039 47.4313 31.143 48.1961 32.3988 47.9543C42.1737 44.6927 49.215 35.4754 49.215 24.6075C49.215 11.0159 38.1991 0 24.6075 0Z" fill="white"/>
</svg>
