<svg width="26" height="19" viewBox="0 0 26 19" fill="none" xmlns="http://www.w3.org/2000/svg">
<path d="M0.333252 1.58333C0.333252 0.708883 1.04213 0 1.91658 0H24.0832C24.9577 0 25.6666 0.708883 25.6666 1.58333C25.6666 2.45778 24.9577 3.16667 24.0833 3.16667H1.91659C1.04213 3.16667 0.333252 2.45778 0.333252 1.58333ZM0.333252 9.5C0.333252 8.62555 1.04213 7.91667 1.91659 7.91667H24.0832C24.9577 7.91667 25.6666 8.62555 25.6666 9.5C25.6666 10.3745 24.9577 11.0833 24.0832 11.0833H1.91659C1.04214 11.0833 0.333252 10.3745 0.333252 9.5ZM0.333252 17.4167C0.333252 16.5422 1.04213 15.8333 1.91658 15.8333H24.0832C24.9577 15.8333 25.6666 16.5422 25.6666 17.4167C25.6666 18.2911 24.9577 19 24.0833 19H1.91659C1.04213 19 0.333252 18.2911 0.333252 17.4167Z" fill="white"/>
</svg>
