<svg width="30" height="29" viewBox="0 0 30 29" fill="none" xmlns="http://www.w3.org/2000/svg">
<path d="M28.5 9.9375L28.9375 7.4375C29.0625 6.9375 28.6875 6.5 28.1875 6.5H23.5625L24.4375 1.4375C24.5625 0.9375 24.1875 0.5 23.6875 0.5H21.1875C20.8125 0.5 20.5 0.8125 20.4375 1.125L19.5 6.5H13.3125L14.25 1.4375C14.3125 0.9375 13.9375 0.5 13.5 0.5H10.9375C10.5625 0.5 10.25 0.8125 10.1875 1.125L9.25 6.5H4.3125C3.9375 6.5 3.625 6.8125 3.5625 7.125L3.125 9.625C3.0625 10.125 3.375 10.5 3.875 10.5H8.5625L7.125 18.5H2.1875C1.8125 18.5 1.5 18.8125 1.4375 19.125L1 21.625C0.875 22.125 1.25 22.5 1.75 22.5H6.375L5.5 27.625C5.375 28.125 5.75 28.5 6.25 28.5H8.75C9.125 28.5 9.4375 28.25 9.5 27.9375L10.4375 22.5H16.625L15.6875 27.625C15.625 28.125 16 28.5 16.4375 28.5H19C19.375 28.5 19.6875 28.25 19.75 27.9375L20.6875 22.5H25.625C26 22.5 26.3125 22.25 26.375 21.9375L26.8125 19.4375C26.875 18.9375 26.5625 18.5 26.0625 18.5H21.375L22.8125 10.5H27.75C28.125 10.5 28.4375 10.25 28.5 9.9375ZM17.3125 18.5H11.1875L12.625 10.5H18.75L17.3125 18.5Z" fill="white"/>
</svg>
