<svg width="41" height="36" viewBox="0 0 41 36" fill="none" xmlns="http://www.w3.org/2000/svg">
<path d="M36.5 0H4.5C3.43913 0 2.42172 0.421427 1.67157 1.17157C0.921427 1.92172 0.5 2.93913 0.5 4V12C0.5 13.0609 0.921427 14.0783 1.67157 14.8284C2.42172 15.5786 3.43913 16 4.5 16H36.5C37.5609 16 38.5783 15.5786 39.3284 14.8284C40.0786 14.0783 40.5 13.0609 40.5 12V4C40.5 2.93913 40.0786 1.92172 39.3284 1.17157C38.5783 0.421427 37.5609 0 36.5 0ZM26.5 10H22.5V6H26.5V10ZM34.5 10H30.5V6H34.5V10ZM36.5 20H4.5C3.43913 20 2.42172 20.4214 1.67157 21.1716C0.921427 21.9217 0.5 22.9391 0.5 24V32C0.5 33.0609 0.921427 34.0783 1.67157 34.8284C2.42172 35.5786 3.43913 36 4.5 36H36.5C37.5609 36 38.5783 35.5786 39.3284 34.8284C40.0786 34.0783 40.5 33.0609 40.5 32V24C40.5 22.9391 40.0786 21.9217 39.3284 21.1716C38.5783 20.4214 37.5609 20 36.5 20ZM26.5 30H22.5V26H26.5V30ZM34.5 30H30.5V26H34.5V30Z" fill="white"/>
</svg>
