<svg width="48" height="48" viewBox="0 0 48 48" fill="none" xmlns="http://www.w3.org/2000/svg">
<path d="M45.3333 0H2.66667C1.95942 0 1.28115 0.280951 0.781048 0.781048C0.280951 1.28115 0 1.95942 0 2.66667V45.3333C0 46.0406 0.280951 46.7189 0.781048 47.219C1.28115 47.7191 1.95942 48 2.66667 48H45.3333C46.0406 48 46.7189 47.7191 47.219 47.219C47.7191 46.7189 48 46.0406 48 45.3333V2.66667C48 1.95942 47.7191 1.28115 47.219 0.781048C46.7189 0.280951 46.0406 0 45.3333 0ZM14.2373 40.8987H7.112V17.992H14.2373V40.8987ZM10.6747 14.864C9.57985 14.864 8.52988 14.4291 7.75573 13.6549C6.98158 12.8808 6.54667 11.8308 6.54667 10.736C6.54667 9.64119 6.98158 8.59121 7.75573 7.81706C8.52988 7.04291 9.57985 6.608 10.6747 6.608C11.7695 6.608 12.8195 7.04291 13.5936 7.81706C14.3678 8.59121 14.8027 9.64119 14.8027 10.736C14.8027 11.8308 14.3678 12.8808 13.5936 13.6549C12.8195 14.4291 11.7695 14.864 10.6747 14.864ZM40.9013 40.8987H33.784V29.76C33.784 27.104 33.736 23.688 30.0827 23.688C26.376 23.688 25.8133 26.584 25.8133 29.5733V40.9013H18.7013V17.9947H25.528V21.1253H25.6267C26.5733 19.3253 28.8987 17.4267 32.3573 17.4267C39.568 17.4267 40.8987 22.168 40.8987 28.3387V40.8987H40.9013Z" fill="white"/>
</svg>
