<svg width="49" height="49" viewBox="0 0 49 49" fill="none" xmlns="http://www.w3.org/2000/svg">
<circle cx="24.5" cy="24.5" r="24.5" fill="white"/>
<path d="M19.4062 27.4375C19.4062 34.0729 16.1823 37.3906 9.73438 37.3906C9.21354 37.3906 8.58854 37.3281 7.85938 37.2031C7.13021 37.0781 6.39062 36.8906 5.64062 36.6406V30.4062C6.17188 30.7708 6.76042 31.0677 7.40625 31.2969C8.0625 31.5156 8.60417 31.625 9.03125 31.625C10.2396 31.625 11.1406 31.2552 11.7344 30.5156C12.3385 29.7656 12.6406 28.6094 12.6406 27.0469V14.5938H19.4062V27.4375ZM35.2031 37L33.5312 32.1719C33.2083 31.224 32.7865 30.4792 32.2656 29.9375C31.7552 29.3958 31.1979 29.125 30.5938 29.125H30.3281V37H23.5781V14.5938H32.5469C35.6823 14.5938 37.9948 15.1094 39.4844 16.1406C40.9844 17.1615 41.7344 18.6979 41.7344 20.75C41.7344 22.2917 41.2969 23.5833 40.4219 24.625C39.5573 25.6667 38.2656 26.4219 36.5469 26.8906V26.9531C37.4948 27.2448 38.2812 27.7188 38.9062 28.375C39.5417 29.0312 40.1094 30.0052 40.6094 31.2969L42.8125 37H35.2031ZM34.5625 21.7031C34.5625 20.9531 34.3333 20.3594 33.875 19.9219C33.4167 19.4844 32.6979 19.2656 31.7188 19.2656H30.3281V24.3906H31.5469C32.4531 24.3906 33.1823 24.1354 33.7344 23.625C34.2865 23.1146 34.5625 22.474 34.5625 21.7031Z" fill="#1A2B3A"/>
</svg>
