<svg width="149" height="132" viewBox="0 0 149 132" fill="none" xmlns="http://www.w3.org/2000/svg">
<path fill-rule="evenodd" clip-rule="evenodd" d="M96.4888 131.702C104.187 131.702 108.998 123.368 105.149 116.702L83.0908 78.4956C79.2418 71.829 69.6193 71.829 65.7703 78.4956L43.7121 116.702C39.8631 123.368 44.6744 131.702 52.3724 131.702L96.4888 131.702ZM54.9263 58.8791C62.6243 58.8791 67.4356 50.5458 63.5866 43.8791L41.5284 5.67318C37.6794 -0.993488 28.0569 -0.993475 24.2079 5.67319L2.14966 43.8791C-1.69934 50.5458 3.11194 58.8791 10.8099 58.8791L54.9263 58.8791ZM41.0872 115.186C37.2382 121.853 27.6157 121.853 23.7667 115.186L1.7085 76.98C-2.14051 70.3134 2.67074 61.98 10.3687 61.98L54.4852 61.98C62.1832 61.98 66.9944 70.3133 63.1454 76.98L41.0872 115.186ZM107.537 114.903C111.386 121.57 121.008 121.57 124.857 114.903L146.915 76.697C150.764 70.0303 145.953 61.697 138.255 61.697L94.1388 61.697C86.4408 61.697 81.6295 70.0304 85.4785 76.697L107.537 114.903Z" fill="url(#paint0_linear_58_858)"/>
<defs>
<linearGradient id="paint0_linear_58_858" x1="97.6944" y1="157.082" x2="77.6199" y2="-8.93188" gradientUnits="userSpaceOnUse">
<stop stop-color="#05EBB4"/>
<stop offset="1" stop-color="#05EBB4" stop-opacity="0"/>
</linearGradient>
</defs>
</svg>
