<svg width="87" height="158" viewBox="0 0 87 158" fill="none" xmlns="http://www.w3.org/2000/svg">
<circle opacity="0.8" cx="-0.5" cy="10.5" r="7.5" fill="#05EBB4"/>
<circle opacity="0.7" cx="-0.5" cy="30.5" r="7.5" fill="#05EBB4"/>
<circle opacity="0.6" cx="-0.5" cy="50.5" r="7.5" fill="#05EBB4"/>
<circle opacity="0.5" cx="-0.5" cy="70.5" r="7.5" fill="#05EBB4"/>
<circle opacity="0.4" cx="-0.5" cy="90.5" r="7.5" fill="#05EBB4"/>
<circle opacity="0.3" cx="-0.5" cy="110.5" r="7.5" fill="#05EBB4"/>
<circle opacity="0.2" cx="-0.5" cy="130.5" r="7.5" fill="#05EBB4"/>
<circle opacity="0.1" cx="-0.5" cy="150.5" r="7.5" fill="#05EBB4"/>
<circle opacity="0.8" cx="19.5" cy="10.5" r="7.5" fill="#05EBB4"/>
<circle opacity="0.7" cx="19.5" cy="30.5" r="7.5" fill="#05EBB4"/>
<circle opacity="0.6" cx="19.5" cy="50.5" r="7.5" fill="#05EBB4"/>
<circle opacity="0.5" cx="19.5" cy="70.5" r="7.5" fill="#05EBB4"/>
<circle opacity="0.4" cx="19.5" cy="90.5" r="7.5" fill="#05EBB4"/>
<circle opacity="0.3" cx="19.5" cy="110.5" r="7.5" fill="#05EBB4"/>
<circle opacity="0.2" cx="19.5" cy="130.5" r="7.5" fill="#05EBB4"/>
<circle opacity="0.1" cx="19.5" cy="150.5" r="7.5" fill="#05EBB4"/>
<circle opacity="0.8" cx="39.5" cy="10.5" r="7.5" fill="#05EBB4"/>
<circle opacity="0.7" cx="39.5" cy="30.5" r="7.5" fill="#05EBB4"/>
<circle opacity="0.6" cx="39.5" cy="50.5" r="7.5" fill="#05EBB4"/>
<circle opacity="0.5" cx="39.5" cy="70.5" r="7.5" fill="#05EBB4"/>
<circle opacity="0.4" cx="39.5" cy="90.5" r="7.5" fill="#05EBB4"/>
<circle opacity="0.3" cx="39.5" cy="110.5" r="7.5" fill="#05EBB4"/>
<circle opacity="0.2" cx="39.5" cy="130.5" r="7.5" fill="#05EBB4"/>
<circle opacity="0.1" cx="39.5" cy="150.5" r="7.5" fill="#05EBB4"/>
<circle opacity="0.8" cx="59.5" cy="10.5" r="7.5" fill="#05EBB4"/>
<circle opacity="0.7" cx="59.5" cy="30.5" r="7.5" fill="#05EBB4"/>
<circle opacity="0.6" cx="59.5" cy="50.5" r="7.5" fill="#05EBB4"/>
<circle opacity="0.5" cx="59.5" cy="70.5" r="7.5" fill="#05EBB4"/>
<circle opacity="0.4" cx="59.5" cy="90.5" r="7.5" fill="#05EBB4"/>
<circle opacity="0.3" cx="59.5" cy="110.5" r="7.5" fill="#05EBB4"/>
<circle opacity="0.2" cx="59.5" cy="130.5" r="7.5" fill="#05EBB4"/>
<circle opacity="0.1" cx="59.5" cy="150.5" r="7.5" fill="#05EBB4"/>
<circle opacity="0.8" cx="79.5" cy="10.5" r="7.5" fill="#05EBB4"/>
<circle opacity="0.7" cx="79.5" cy="30.5" r="7.5" fill="#05EBB4"/>
<circle opacity="0.6" cx="79.5" cy="50.5" r="7.5" fill="#05EBB4"/>
<circle opacity="0.5" cx="79.5" cy="70.5" r="7.5" fill="#05EBB4"/>
<circle opacity="0.4" cx="79.5" cy="90.5" r="7.5" fill="#05EBB4"/>
<circle opacity="0.3" cx="79.5" cy="110.5" r="7.5" fill="#05EBB4"/>
<circle opacity="0.2" cx="79.5" cy="130.5" r="7.5" fill="#05EBB4"/>
<circle opacity="0.1" cx="79.5" cy="150.5" r="7.5" fill="#05EBB4"/>
</svg>
