<svg width="195" height="115" viewBox="0 0 195 115" fill="none" xmlns="http://www.w3.org/2000/svg">
<circle cx="187.5" cy="7.5" r="7.5" transform="rotate(90 187.5 7.5)" fill="#05EBB4"/>
<circle opacity="0.9" cx="167.5" cy="7.5" r="7.5" transform="rotate(90 167.5 7.5)" fill="#05EBB4"/>
<circle opacity="0.8" cx="147.5" cy="7.5" r="7.5" transform="rotate(90 147.5 7.5)" fill="#05EBB4"/>
<circle opacity="0.7" cx="127.5" cy="7.5" r="7.5" transform="rotate(90 127.5 7.5)" fill="#05EBB4"/>
<circle opacity="0.6" cx="107.5" cy="7.5" r="7.5" transform="rotate(90 107.5 7.5)" fill="#05EBB4"/>
<circle opacity="0.5" cx="87.5" cy="7.5" r="7.5" transform="rotate(90 87.5 7.5)" fill="#05EBB4"/>
<circle opacity="0.4" cx="67.5" cy="7.5" r="7.5" transform="rotate(90 67.5 7.5)" fill="#05EBB4"/>
<circle opacity="0.3" cx="47.5" cy="7.5" r="7.5" transform="rotate(90 47.5 7.5)" fill="#05EBB4"/>
<circle opacity="0.2" cx="27.5" cy="7.5" r="7.5" transform="rotate(90 27.5 7.5)" fill="#05EBB4"/>
<circle opacity="0.1" cx="7.5" cy="7.5" r="7.5" transform="rotate(90 7.5 7.5)" fill="#05EBB4"/>
<circle cx="187.5" cy="27.5" r="7.5" transform="rotate(90 187.5 27.5)" fill="#05EBB4"/>
<circle opacity="0.9" cx="167.5" cy="27.5" r="7.5" transform="rotate(90 167.5 27.5)" fill="#05EBB4"/>
<circle opacity="0.8" cx="147.5" cy="27.5" r="7.5" transform="rotate(90 147.5 27.5)" fill="#05EBB4"/>
<circle opacity="0.7" cx="127.5" cy="27.5" r="7.5" transform="rotate(90 127.5 27.5)" fill="#05EBB4"/>
<circle opacity="0.6" cx="107.5" cy="27.5" r="7.5" transform="rotate(90 107.5 27.5)" fill="#05EBB4"/>
<circle opacity="0.5" cx="87.5" cy="27.5" r="7.5" transform="rotate(90 87.5 27.5)" fill="#05EBB4"/>
<circle opacity="0.4" cx="67.5" cy="27.5" r="7.5" transform="rotate(90 67.5 27.5)" fill="#05EBB4"/>
<circle opacity="0.3" cx="47.5" cy="27.5" r="7.5" transform="rotate(90 47.5 27.5)" fill="#05EBB4"/>
<circle opacity="0.2" cx="27.5" cy="27.5" r="7.5" transform="rotate(90 27.5 27.5)" fill="#05EBB4"/>
<circle opacity="0.1" cx="7.5" cy="27.5" r="7.5" transform="rotate(90 7.5 27.5)" fill="#05EBB4"/>
<circle cx="187.5" cy="47.5" r="7.5" transform="rotate(90 187.5 47.5)" fill="#05EBB4"/>
<circle opacity="0.9" cx="167.5" cy="47.5" r="7.5" transform="rotate(90 167.5 47.5)" fill="#05EBB4"/>
<circle opacity="0.8" cx="147.5" cy="47.5" r="7.5" transform="rotate(90 147.5 47.5)" fill="#05EBB4"/>
<circle opacity="0.7" cx="127.5" cy="47.5" r="7.5" transform="rotate(90 127.5 47.5)" fill="#05EBB4"/>
<circle opacity="0.6" cx="107.5" cy="47.5" r="7.5" transform="rotate(90 107.5 47.5)" fill="#05EBB4"/>
<circle opacity="0.5" cx="87.5" cy="47.5" r="7.5" transform="rotate(90 87.5 47.5)" fill="#05EBB4"/>
<circle opacity="0.4" cx="67.5" cy="47.5" r="7.5" transform="rotate(90 67.5 47.5)" fill="#05EBB4"/>
<circle opacity="0.3" cx="47.5" cy="47.5" r="7.5" transform="rotate(90 47.5 47.5)" fill="#05EBB4"/>
<circle opacity="0.2" cx="27.5" cy="47.5" r="7.5" transform="rotate(90 27.5 47.5)" fill="#05EBB4"/>
<circle opacity="0.1" cx="7.5" cy="47.5" r="7.5" transform="rotate(90 7.5 47.5)" fill="#05EBB4"/>
<circle cx="187.5" cy="67.5" r="7.5" transform="rotate(90 187.5 67.5)" fill="#05EBB4"/>
<circle opacity="0.9" cx="167.5" cy="67.5" r="7.5" transform="rotate(90 167.5 67.5)" fill="#05EBB4"/>
<circle opacity="0.8" cx="147.5" cy="67.5" r="7.5" transform="rotate(90 147.5 67.5)" fill="#05EBB4"/>
<circle opacity="0.7" cx="127.5" cy="67.5" r="7.5" transform="rotate(90 127.5 67.5)" fill="#05EBB4"/>
<circle opacity="0.6" cx="107.5" cy="67.5" r="7.5" transform="rotate(90 107.5 67.5)" fill="#05EBB4"/>
<circle opacity="0.5" cx="87.5" cy="67.5" r="7.5" transform="rotate(90 87.5 67.5)" fill="#05EBB4"/>
<circle opacity="0.4" cx="67.5" cy="67.5" r="7.5" transform="rotate(90 67.5 67.5)" fill="#05EBB4"/>
<circle opacity="0.3" cx="47.5" cy="67.5" r="7.5" transform="rotate(90 47.5 67.5)" fill="#05EBB4"/>
<circle opacity="0.2" cx="27.5" cy="67.5" r="7.5" transform="rotate(90 27.5 67.5)" fill="#05EBB4"/>
<circle opacity="0.1" cx="7.5" cy="67.5" r="7.5" transform="rotate(90 7.5 67.5)" fill="#05EBB4"/>
<circle cx="187.5" cy="87.5" r="7.5" transform="rotate(90 187.5 87.5)" fill="#05EBB4"/>
<circle opacity="0.9" cx="167.5" cy="87.5" r="7.5" transform="rotate(90 167.5 87.5)" fill="#05EBB4"/>
<circle opacity="0.8" cx="147.5" cy="87.5" r="7.5" transform="rotate(90 147.5 87.5)" fill="#05EBB4"/>
<circle opacity="0.7" cx="127.5" cy="87.5" r="7.5" transform="rotate(90 127.5 87.5)" fill="#05EBB4"/>
<circle opacity="0.6" cx="107.5" cy="87.5" r="7.5" transform="rotate(90 107.5 87.5)" fill="#05EBB4"/>
<circle opacity="0.5" cx="87.5" cy="87.5" r="7.5" transform="rotate(90 87.5 87.5)" fill="#05EBB4"/>
<circle opacity="0.4" cx="67.5" cy="87.5" r="7.5" transform="rotate(90 67.5 87.5)" fill="#05EBB4"/>
<circle opacity="0.3" cx="47.5" cy="87.5" r="7.5" transform="rotate(90 47.5 87.5)" fill="#05EBB4"/>
<circle opacity="0.2" cx="27.5" cy="87.5" r="7.5" transform="rotate(90 27.5 87.5)" fill="#05EBB4"/>
<circle opacity="0.1" cx="7.5" cy="87.5" r="7.5" transform="rotate(90 7.5 87.5)" fill="#05EBB4"/>
<circle cx="187.5" cy="107.5" r="7.5" transform="rotate(90 187.5 107.5)" fill="#05EBB4"/>
<circle opacity="0.9" cx="167.5" cy="107.5" r="7.5" transform="rotate(90 167.5 107.5)" fill="#05EBB4"/>
<circle opacity="0.8" cx="147.5" cy="107.5" r="7.5" transform="rotate(90 147.5 107.5)" fill="#05EBB4"/>
<circle opacity="0.7" cx="127.5" cy="107.5" r="7.5" transform="rotate(90 127.5 107.5)" fill="#05EBB4"/>
<circle opacity="0.6" cx="107.5" cy="107.5" r="7.5" transform="rotate(90 107.5 107.5)" fill="#05EBB4"/>
<circle opacity="0.5" cx="87.5" cy="107.5" r="7.5" transform="rotate(90 87.5 107.5)" fill="#05EBB4"/>
<circle opacity="0.4" cx="67.5" cy="107.5" r="7.5" transform="rotate(90 67.5 107.5)" fill="#05EBB4"/>
<circle opacity="0.3" cx="47.5" cy="107.5" r="7.5" transform="rotate(90 47.5 107.5)" fill="#05EBB4"/>
<circle opacity="0.2" cx="27.5" cy="107.5" r="7.5" transform="rotate(90 27.5 107.5)" fill="#05EBB4"/>
<circle opacity="0.1" cx="7.5" cy="107.5" r="7.5" transform="rotate(90 7.5 107.5)" fill="#05EBB4"/>
</svg>
