<svg width="93" height="123" viewBox="0 0 93 123" fill="none" xmlns="http://www.w3.org/2000/svg">
<circle cx="85.5" cy="115.5" r="7.5" transform="rotate(-180 85.5 115.5)" fill="#05EBB4"/>
<circle opacity="0.9" cx="85.5" cy="95.5" r="7.5" transform="rotate(-180 85.5 95.5)" fill="#05EBB4"/>
<circle opacity="0.8" cx="85.5" cy="75.5" r="7.5" transform="rotate(-180 85.5 75.5)" fill="#05EBB4"/>
<circle opacity="0.7" cx="85.5" cy="55.5" r="7.5" transform="rotate(-180 85.5 55.5)" fill="#05EBB4"/>
<circle opacity="0.6" cx="85.5" cy="35.5" r="7.5" transform="rotate(-180 85.5 35.5)" fill="#05EBB4"/>
<circle opacity="0.5" cx="85.5" cy="15.5" r="7.5" transform="rotate(-180 85.5 15.5)" fill="#05EBB4"/>
<circle opacity="0.4" cx="85.5" cy="-4.5" r="7.5" transform="rotate(-180 85.5 -4.5)" fill="#05EBB4"/>
<circle cx="65.5" cy="115.5" r="7.5" transform="rotate(-180 65.5 115.5)" fill="#05EBB4"/>
<circle opacity="0.9" cx="65.5" cy="95.5" r="7.5" transform="rotate(-180 65.5 95.5)" fill="#05EBB4"/>
<circle opacity="0.8" cx="65.5" cy="75.5" r="7.5" transform="rotate(-180 65.5 75.5)" fill="#05EBB4"/>
<circle opacity="0.7" cx="65.5" cy="55.5" r="7.5" transform="rotate(-180 65.5 55.5)" fill="#05EBB4"/>
<circle opacity="0.6" cx="65.5" cy="35.5" r="7.5" transform="rotate(-180 65.5 35.5)" fill="#05EBB4"/>
<circle opacity="0.5" cx="65.5" cy="15.5" r="7.5" transform="rotate(-180 65.5 15.5)" fill="#05EBB4"/>
<circle opacity="0.4" cx="65.5" cy="-4.5" r="7.5" transform="rotate(-180 65.5 -4.5)" fill="#05EBB4"/>
<circle cx="45.5" cy="115.5" r="7.5" transform="rotate(-180 45.5 115.5)" fill="#05EBB4"/>
<circle opacity="0.9" cx="45.5" cy="95.5" r="7.5" transform="rotate(-180 45.5 95.5)" fill="#05EBB4"/>
<circle opacity="0.8" cx="45.5" cy="75.5" r="7.5" transform="rotate(-180 45.5 75.5)" fill="#05EBB4"/>
<circle opacity="0.7" cx="45.5" cy="55.5" r="7.5" transform="rotate(-180 45.5 55.5)" fill="#05EBB4"/>
<circle opacity="0.6" cx="45.5" cy="35.5" r="7.5" transform="rotate(-180 45.5 35.5)" fill="#05EBB4"/>
<circle opacity="0.5" cx="45.5" cy="15.5" r="7.5" transform="rotate(-180 45.5 15.5)" fill="#05EBB4"/>
<circle opacity="0.4" cx="45.5" cy="-4.5" r="7.5" transform="rotate(-180 45.5 -4.5)" fill="#05EBB4"/>
<circle cx="25.5" cy="115.5" r="7.5" transform="rotate(-180 25.5 115.5)" fill="#05EBB4"/>
<circle opacity="0.9" cx="25.5" cy="95.5" r="7.5" transform="rotate(-180 25.5 95.5)" fill="#05EBB4"/>
<circle opacity="0.8" cx="25.5" cy="75.5" r="7.5" transform="rotate(-180 25.5 75.5)" fill="#05EBB4"/>
<circle opacity="0.7" cx="25.5" cy="55.5" r="7.5" transform="rotate(-180 25.5 55.5)" fill="#05EBB4"/>
<circle opacity="0.6" cx="25.5" cy="35.5" r="7.5" transform="rotate(-180 25.5 35.5)" fill="#05EBB4"/>
<circle opacity="0.5" cx="25.5" cy="15.5" r="7.5" transform="rotate(-180 25.5 15.5)" fill="#05EBB4"/>
<circle opacity="0.4" cx="25.5" cy="-4.5" r="7.5" transform="rotate(-180 25.5 -4.5)" fill="#05EBB4"/>
<circle cx="5.5" cy="115.5" r="7.5" transform="rotate(-180 5.5 115.5)" fill="#05EBB4"/>
<circle opacity="0.9" cx="5.5" cy="95.5" r="7.5" transform="rotate(-180 5.5 95.5)" fill="#05EBB4"/>
<circle opacity="0.8" cx="5.5" cy="75.5" r="7.5" transform="rotate(-180 5.5 75.5)" fill="#05EBB4"/>
<circle opacity="0.7" cx="5.5" cy="55.5" r="7.5" transform="rotate(-180 5.5 55.5)" fill="#05EBB4"/>
<circle opacity="0.6" cx="5.5" cy="35.5" r="7.5" transform="rotate(-180 5.5 35.5)" fill="#05EBB4"/>
<circle opacity="0.5" cx="5.5" cy="15.5" r="7.5" transform="rotate(-180 5.5 15.5)" fill="#05EBB4"/>
<circle opacity="0.4" cx="5.5" cy="-4.5" r="7.5" transform="rotate(-180 5.5 -4.5)" fill="#05EBB4"/>
</svg>
