<svg width="188" height="110" viewBox="0 0 188 110" fill="none" xmlns="http://www.w3.org/2000/svg">
<circle cx="4" cy="4" r="4" fill="#05EBB4"/>
<circle cx="4" cy="21" r="4" fill="#05EBB4"/>
<circle cx="4" cy="38" r="4" fill="#05EBB4"/>
<circle cx="4" cy="55" r="4" fill="#05EBB4"/>
<circle cx="4" cy="72" r="4" fill="#05EBB4"/>
<circle cx="4" cy="89" r="4" fill="#05EBB4"/>
<circle cx="4" cy="106" r="4" fill="#05EBB4"/>
<circle cx="22" cy="4" r="4" fill="#05EBB4"/>
<circle cx="22" cy="21" r="4" fill="#05EBB4"/>
<circle cx="22" cy="38" r="4" fill="#05EBB4"/>
<circle cx="22" cy="55" r="4" fill="#05EBB4"/>
<circle cx="22" cy="72" r="4" fill="#05EBB4"/>
<circle cx="22" cy="89" r="4" fill="#05EBB4"/>
<circle cx="22" cy="106" r="4" fill="#05EBB4"/>
<circle cx="40" cy="4" r="4" fill="#05EBB4"/>
<circle cx="40" cy="21" r="4" fill="#05EBB4"/>
<circle cx="40" cy="38" r="4" fill="#05EBB4"/>
<circle cx="40" cy="55" r="4" fill="#05EBB4"/>
<circle cx="40" cy="72" r="4" fill="#05EBB4"/>
<circle cx="40" cy="89" r="4" fill="#05EBB4"/>
<circle cx="40" cy="106" r="4" fill="#05EBB4"/>
<circle cx="58" cy="4" r="4" fill="#05EBB4"/>
<circle cx="58" cy="21" r="4" fill="#05EBB4"/>
<circle cx="58" cy="38" r="4" fill="#05EBB4"/>
<circle cx="58" cy="55" r="4" fill="#05EBB4"/>
<circle cx="58" cy="72" r="4" fill="#05EBB4"/>
<circle cx="58" cy="89" r="4" fill="#05EBB4"/>
<circle cx="58" cy="106" r="4" fill="#05EBB4"/>
<circle cx="76" cy="4" r="4" fill="#05EBB4"/>
<circle cx="76" cy="21" r="4" fill="#05EBB4"/>
<circle cx="76" cy="38" r="4" fill="#05EBB4"/>
<circle cx="76" cy="55" r="4" fill="#05EBB4"/>
<circle cx="76" cy="72" r="4" fill="#05EBB4"/>
<circle cx="76" cy="89" r="4" fill="#05EBB4"/>
<circle cx="76" cy="106" r="4" fill="#05EBB4"/>
<circle cx="94" cy="4" r="4" fill="#05EBB4"/>
<circle cx="94" cy="21" r="4" fill="#05EBB4"/>
<circle cx="94" cy="38" r="4" fill="#05EBB4"/>
<circle cx="94" cy="55" r="4" fill="#05EBB4"/>
<circle cx="94" cy="72" r="4" fill="#05EBB4"/>
<circle cx="94" cy="89" r="4" fill="#05EBB4"/>
<circle cx="94" cy="106" r="4" fill="#05EBB4"/>
<circle cx="112" cy="4" r="4" fill="#05EBB4"/>
<circle cx="112" cy="21" r="4" fill="#05EBB4"/>
<circle cx="112" cy="38" r="4" fill="#05EBB4"/>
<circle cx="112" cy="55" r="4" fill="#05EBB4"/>
<circle cx="112" cy="72" r="4" fill="#05EBB4"/>
<circle cx="112" cy="89" r="4" fill="#05EBB4"/>
<circle cx="112" cy="106" r="4" fill="#05EBB4"/>
<circle cx="130" cy="4" r="4" fill="#05EBB4"/>
<circle cx="130" cy="21" r="4" fill="#05EBB4"/>
<circle cx="130" cy="38" r="4" fill="#05EBB4"/>
<circle cx="130" cy="55" r="4" fill="#05EBB4"/>
<circle cx="130" cy="72" r="4" fill="#05EBB4"/>
<circle cx="130" cy="89" r="4" fill="#05EBB4"/>
<circle cx="130" cy="106" r="4" fill="#05EBB4"/>
<circle cx="148" cy="4" r="4" fill="#05EBB4"/>
<circle cx="148" cy="21" r="4" fill="#05EBB4"/>
<circle cx="148" cy="38" r="4" fill="#05EBB4"/>
<circle cx="148" cy="55" r="4" fill="#05EBB4"/>
<circle cx="148" cy="72" r="4" fill="#05EBB4"/>
<circle cx="148" cy="89" r="4" fill="#05EBB4"/>
<circle cx="148" cy="106" r="4" fill="#05EBB4"/>
<circle cx="166" cy="4" r="4" fill="#05EBB4"/>
<circle cx="166" cy="21" r="4" fill="#05EBB4"/>
<circle cx="166" cy="38" r="4" fill="#05EBB4"/>
<circle cx="166" cy="55" r="4" fill="#05EBB4"/>
<circle cx="166" cy="72" r="4" fill="#05EBB4"/>
<circle cx="166" cy="89" r="4" fill="#05EBB4"/>
<circle cx="166" cy="106" r="4" fill="#05EBB4"/>
<circle cx="184" cy="4" r="4" fill="#05EBB4"/>
<circle cx="184" cy="21" r="4" fill="#05EBB4"/>
<circle cx="184" cy="38" r="4" fill="#05EBB4"/>
<circle cx="184" cy="55" r="4" fill="#05EBB4"/>
<circle cx="184" cy="72" r="4" fill="#05EBB4"/>
<circle cx="184" cy="89" r="4" fill="#05EBB4"/>
<circle cx="184" cy="106" r="4" fill="#05EBB4"/>
</svg>
