<svg width="49" height="48" viewBox="0 0 49 48" fill="none" xmlns="http://www.w3.org/2000/svg">
<path d="M20.5 36C24.05 35.9993 27.4976 34.8109 30.294 32.624L37.672 40.002C38.4529 40.7829 39.7191 40.7829 40.5 40.002C41.2809 39.2211 41.2809 37.9549 40.5 37.174L33.122 29.796C35.31 26.9993 36.4991 23.5509 36.5 20C36.5 11.178 29.322 4 20.5 4C11.678 4 4.5 11.178 4.5 20C4.5 28.822 11.678 36 20.5 36ZM20.5 8C27.118 8 32.5 13.382 32.5 20C32.5 26.618 27.118 32 20.5 32C13.882 32 8.5 26.618 8.5 20C8.5 13.382 13.882 8 20.5 8Z" fill="white"/>
<path d="M23.324 17.1721C23.5976 17.4463 23.8268 17.7524 24.0082 18.0816C24.5415 19.0499 25.3962 20 26.5017 20C27.6059 20 28.5263 19.0922 28.2536 18.0223C28.1596 17.6531 28.0389 17.2904 27.8922 16.937C27.4892 15.9662 26.8977 15.0849 26.152 14.344C23.6029 11.7983 19.4791 11.3957 16.4331 13.1361C15.4745 13.6839 15.4796 14.9774 16.2592 15.7592C17.0395 16.5417 18.3222 16.4828 19.3876 16.1896C20.7484 15.8151 22.2935 16.1443 23.324 17.1721Z" fill="white"/>
</svg>
